<?xml version="1.0" encoding="utf-8"?>
<!-- Generator: Adobe Illustrator 25.0.1, SVG Export Plug-In . SVG Version: 6.00 Build 0)  -->
<svg version="1.1" id="Layer_1" xmlns="http://www.w3.org/2000/svg" xmlns:xlink="http://www.w3.org/1999/xlink" x="0px" y="0px"
	 viewBox="0 0 130 130" style="enable-background:new 0 0 130 130;" xml:space="preserve">
<style type="text/css">
	.st0{fill:#BF9AFC;}
</style>
<g>
	<path class="st0" d="M113.75,121.93c-8.9-8.03-17.29-15.6-26.06-23.52c0.96,3.5,1.78,6.51,2.73,9.94c-1.35,0.08-2.42,0.2-3.48,0.2
		c-19.79,0.01-39.58,0.02-59.37,0c-8.87-0.01-13.5-4.57-13.52-13.42c-0.03-24.61-0.03-49.22,0-73.82
		c0.01-8.7,4.58-13.21,13.32-13.22c24.51-0.02,49.01-0.02,73.52,0c8.34,0.01,13.03,4.54,13.05,12.88
		c0.06,32.71,0.03,65.42,0.02,98.13C113.96,119.77,113.86,120.45,113.75,121.93z M54.95,35.12c-0.1-0.29-0.21-0.58-0.31-0.87
		c-3.27,1.02-6.59,1.93-9.8,3.09c-3.85,1.38-6.68,3.9-7.75,8.03c-1.94,7.5-3.93,14.99-5.78,22.51c-1.29,5.27,1.03,8.91,5.66,11.23
		c1.91,0.95,3.89,1.86,5.94,2.4c5.38,1.43,5.79,1.18,8.71-3.5c-2.79-1.8-5.57-3.61-8.35-5.4c0.16-0.23,0.33-0.46,0.49-0.69
		c13.66,7.09,27.46,7.43,41.38,0.18c0.1,0.34,0.2,0.68,0.29,1.03c-2.84,1.67-5.67,3.35-8.5,5.02c1.6,2.18,2.8,4.75,6.41,3.98
		c4.51-0.96,8.77-2.4,11.94-5.82c1.18-1.27,2.14-3.33,2.11-5.01c-0.17-10.28-2.92-19.99-7.29-29.25c-0.41-0.87-1.14-1.83-1.97-2.22
		c-3.68-1.72-7.42-3.33-11.22-4.78c-1.04-0.39-2.36-0.06-4.31-0.06c4.36,2.04,7.91,3.71,11.45,5.37c-0.07,0.27-0.14,0.54-0.2,0.82
		c-13.64-5.83-27.23-5.39-40.79,0.3c-0.06-0.26-0.12-0.51-0.18-0.77C46.88,38.85,50.92,36.98,54.95,35.12z"/>
	<path class="st0" d="M74.62,55.74c3.19,0.08,5.92,3.29,5.75,6.75c-0.16,3.27-2.81,5.98-5.84,5.98c-3.29,0-6.02-3.03-5.91-6.55
		C68.73,58.54,71.52,55.67,74.62,55.74z"/>
	<path class="st0" d="M59.49,62.14c0.01,3.48-2.53,6.29-5.74,6.33c-3.19,0.04-5.85-2.73-5.95-6.19c-0.1-3.46,2.74-6.59,5.96-6.54
		C56.94,55.8,59.48,58.64,59.49,62.14z"/>
</g>
</svg>
