<?xml version="1.0" encoding="utf-8"?>
<!-- Generator: Adobe Illustrator 25.0.1, SVG Export Plug-In . SVG Version: 6.00 Build 0)  -->
<svg version="1.1" id="Layer_1" xmlns="http://www.w3.org/2000/svg" xmlns:xlink="http://www.w3.org/1999/xlink" x="0px" y="0px"
	 viewBox="0 0 130 130" style="enable-background:new 0 0 130 130;" xml:space="preserve">
<style type="text/css">
	.st0{fill:#BF9AFC;}
</style>
<g>
	<path class="st0" d="M63.71,6.47c-32.45,0-58.76,26.31-58.76,58.76S31.26,124,63.71,124s58.76-26.31,58.76-58.76
		S96.17,6.47,63.71,6.47z M45.09,93.67c-5.47,0.22-10.95,0.93-16.38,1.71c-3.75,0.54-4.85-0.17-4.84-4.03
		c0.04-11.47,0.09-22.94,0.12-34.41c0.01-2.78-0.1-5.56-0.11-8.35c-0.01-3.3,1.17-4.25,4.88-3.72c0,3.05,0,6.14,0,9.23
		c0.01,8.88-0.09,17.76,0.08,26.64c0.08,4.06,3.18,6.78,7.3,6.9c5.97,0.18,11.75,1.09,17.01,4.14c1.3,0.75,2.49,1.68,4.12,2.79
		C52.86,94.22,48.96,93.52,45.09,93.67z M61.48,89.81c0,0.77,0,1.55,0,2.81c-7.1-6.78-15.33-8.98-24.25-9.34
		c-3.33-0.14-4.03-0.82-4.03-4.2c0-13.33,0-26.66,0-39.99c0-3.58,0.78-4.33,4.35-4.23c5.17,0.15,10.19,1.05,14.72,3.61
		c2.22,1.25,4.25,2.92,6.18,4.61c2.23,1.96,3.15,4.42,3.11,7.57C61.38,63.7,61.48,76.75,61.48,89.81z M65.94,74.01
		c0-8.16,0.06-16.33-0.03-24.49c-0.02-1.92,0.53-3.45,1.7-4.92c5.05-6.3,11.95-8.76,19.65-9.6c1.06-0.12,2.12-0.14,3.18-0.16
		c2.82-0.04,3.74,0.84,3.78,3.61c0.02,0.86,0,1.73,0,2.59c0,12.68,0,25.37,0,38.05c0,3.36-0.71,4.05-4.06,4.19
		c-8.92,0.36-17.15,2.58-24.23,9.34C65.94,86.07,65.94,80.04,65.94,74.01z M99.23,95.45c-9.3-1.98-18.63-2.64-28.03-0.73
		c-0.17,0.04-0.37-0.03-1.2-0.11c2.08-1.33,3.65-2.51,5.37-3.41c4.73-2.49,9.88-3.35,15.17-3.52c5.38-0.17,8.11-2.94,8.11-8.37
		c0.01-10.67,0-21.35,0-32.02c0-0.78,0-1.57,0-2.31c3.42-0.82,4.89,0.27,4.89,3.49c0.01,14.45,0,28.9,0,43.35
		C103.54,95.01,102.28,96.1,99.23,95.45z"/>
</g>
</svg>
