<?xml version="1.0" encoding="utf-8"?>
<!-- Generator: Adobe Illustrator 25.0.1, SVG Export Plug-In . SVG Version: 6.00 Build 0)  -->
<svg version="1.1" id="Layer_1" xmlns="http://www.w3.org/2000/svg" xmlns:xlink="http://www.w3.org/1999/xlink" x="0px" y="0px"
	 viewBox="0 0 130 130" style="enable-background:new 0 0 130 130;" xml:space="preserve">
<style type="text/css">
	.st0{fill:#BF9AFC;}
</style>
<g>
	<path class="st0" d="M66.1,8.28c31.44-0.5,58.16,26.21,57.82,58.45c-0.33,31.24-26.54,57.69-58.75,57.26
		C34.05,123.59,7.58,97.38,8.1,65.06C8.59,34.16,34.5,7.75,66.1,8.28z M34.83,58.29c0.36,6.85,3.97,11.01,10.14,13.36
		c-0.08,0.13-0.16,0.26-0.24,0.39c-1.56,0.07-3.11,0.14-4.89,0.23c2.09,5.85,6.45,8.55,12.51,9.59c-5.99,4.42-12.3,6.09-19.4,5.75
		c0.32,0.44,0.37,0.57,0.47,0.63c0.25,0.17,0.52,0.33,0.79,0.48c7.05,3.88,14.57,5.39,22.61,4.84
		c21.66-1.47,35.61-19.67,36.16-38.39c0.06-2.03,0.61-3.43,2.17-4.73c1.6-1.33,2.92-3.01,4.36-4.53c-0.11-0.13-0.23-0.25-0.34-0.37
		c-2.01,0.52-4.01,1.03-6.01,1.55c1.8-2.28,3.9-4.06,4.62-7.08c-2.47,0.9-4.63,1.81-6.86,2.41c-0.78,0.21-1.98-0.05-2.63-0.56
		c-4.8-3.71-9.99-4.6-15.41-1.87c-5.33,2.68-7.88,7.24-7.63,13.28c0.03,0.7,0,1.4,0,2.27c-11.7-0.77-20.89-5.79-28.58-14.46
		c-3.27,7.21-1.81,13.04,3.58,18.13c-0.12,0.13-0.23,0.25-0.35,0.37C38.32,59.18,36.75,58.78,34.83,58.29z"/>
</g>
</svg>
